<?xml version="1.0" encoding="UTF-8"?>
<svg xmlns="http://www.w3.org/2000/svg" width="512" height="512" viewBox="0 0 512 512">
  <defs>
    <!-- Dégradé violet -->
    <linearGradient id="g" x1="0" x2="1" y1="0" y2="1">
      <stop offset="0" stop-color="#4f46e5"/>
      <stop offset="1" stop-color="#7c3aed"/>
    </linearGradient>
    <!-- Ombre douce -->
    <filter id="shadow" x="-50%" y="-50%" width="200%" height="200%">
      <feGaussianBlur in="SourceAlpha" stdDeviation="8" result="blur"/>
      <feOffset in="blur" dx="0" dy="6" result="off"/>
      <feColorMatrix in="off" type="matrix"
        values="0 0 0 0 0   0 0 0 0 0   0 0 0 0 0   0 0 0 .25 0" result="shadow"/>
      <feMerge>
        <feMergeNode in="shadow"/>
        <feMergeNode in="SourceGraphic"/>
      </feMerge>
    </filter>
  </defs>

  <!-- Fond arrondi violet -->
  <rect width="512" height="512" rx="104" fill="url(#g)"/>

  <!-- Nuage blanc (logo) -->
  <g transform="translate(68,152)" filter="url(#shadow)">
    <path d="M96 156h184c37 0 68-27 68-61 0-32-26-59-59-61-9-26-35-45-65-45-33 0-61 22-67 52-4-1-8-1-12-1-35 0-64 25-64 57s29 59 68 59z"
          fill="#ffffff" opacity=".96"/>
    <!-- Petit détail jaune -->
    <circle cx="308" cy="122" r="12" fill="#facc15"/>
  </g>
</svg>
